<svg xmlns="http://www.w3.org/2000/svg" viewBox="0 0 27 27">
  <g fill="none" fill-rule="evenodd">
    <path d="M-2-1h28v28H-2z"/>
    <g fill="#fff" fill-rule="nonzero">
      <path d="M21.197 3.021c1.294 1.295 1.321 3.577.034 4.864l-1.668 1.65a.5.5 0 0 1-.702.001l-4.227-4.155a.5.5 0 0 1-.001-.712l1.667-1.65c1.29-1.288 3.607-1.287 4.897.002zM19.21 8.478l1.316-1.302c.89-.89.871-2.54-.036-3.447-.9-.9-2.585-.9-3.483-.002l-.002.002-1.308 1.294 3.513 3.455zM7.248 20.544a.5.5 0 0 1 .345.938l-6.488 2.384c-.486.166-.93-.288-.767-.787l2.397-6.476a.5.5 0 1 1 .938.347L1.57 22.63l5.678-2.086z"/>
      <path d="M14.656 4.646a.5.5 0 0 1 .707 0l4.19 4.191a.5.5 0 0 1 0 .707L7.763 21.354A.5.5 0 0 1 6.908 21a.623.623 0 0 0-.185-.453c-.176-.185-.454-.227-.633-.132-.512.341-.97-.193-.792-.708a.619.619 0 0 0-.119-.704c-.176-.185-.454-.227-.633-.132-.512.341-.97-.193-.792-.708a.615.615 0 0 0-.11-.695.616.616 0 0 0-.444-.176.5.5 0 0 1-.353-.854L14.656 4.646zm.353 1.06L4.126 16.575a1.632 1.632 0 0 1 .695 1.255c.398.012.787.175 1.074.476.293.293.451.684.47 1.068.398.012.787.175 1.074.476.07.07.132.145.187.225L18.493 9.19 15.01 5.707z"/>
      <path d="M16.306 12.812l-3.695 3.694 6.926 6.893 3.694-3.689-6.925-6.898zm.353-1.06l7.633 7.604a.5.5 0 0 1 0 .708l-4.401 4.395a.5.5 0 0 1-.706 0l-7.634-7.597a.5.5 0 0 1-.001-.708l4.402-4.402a.5.5 0 0 1 .707 0zM11.161 8.1L4.878 1.75 1.374 5.292l6.374 6.244 3.413-3.434zm-3.758 4.497L.315 5.654a.5.5 0 0 1-.005-.709L4.522.688a.5.5 0 0 1 .711 0l6.988 7.062a.5.5 0 0 1-.001.704l-4.112 4.138a.5.5 0 0 1-.705.005z"/>
      <path d="M19.663 21.23a1.3 1.3 0 1 1 0-2.6 1.3 1.3 0 0 1 0 2.6zm0-1a.3.3 0 1 0 0-.6.3.3 0 0 0 0 .6zM2.525 6.608a.5.5 0 0 1-.707-.707l1.217-1.215a.5.5 0 1 1 .706.708L2.525 6.608zM7.325 11.408a.5.5 0 1 1-.707-.707l1.217-1.215a.5.5 0 1 1 .706.708l-1.216 1.214zM4.925 9.008a.5.5 0 0 1-.707-.707l1.217-1.215a.5.5 0 1 1 .706.708L4.925 9.008zM3.742 7.794a.5.5 0 1 1-.708-.708l.8-.8a.5.5 0 1 1 .708.708l-.8.8zM6.142 10.194a.5.5 0 0 1-.708-.708l.8-.8a.5.5 0 1 1 .708.708l-.8.8zM15.769 20.3a.5.5 0 0 1-.697-.717l1.38-1.341a.5.5 0 1 1 .697.716l-1.38 1.342zM13.371 17.898a.5.5 0 1 1-.701-.713l1.12-1.102a.5.5 0 0 1 .701.713l-1.12 1.102zM14.754 18.954a.5.5 0 0 1-.708-.708l.8-.8a.5.5 0 0 1 .708.708l-.8.8z"/>
    </g>
  </g>
</svg>
